<svg id="visual" viewBox="0 0 900 600" width="900" height="600" xmlns="http://www.w3.org/2000/svg" xmlns:xlink="http://www.w3.org/1999/xlink" version="1.1"><rect x="0" y="0" width="900" height="600" fill="#140021"></rect><path d="M0 301L129 301L129 270L257 270L257 363L386 363L386 334L514 334L514 286L643 286L643 269L771 269L771 297L900 297L900 352L900 601L900 601L771 601L771 601L643 601L643 601L514 601L514 601L386 601L386 601L257 601L257 601L129 601L129 601L0 601Z" fill="#9900ff"></path><path d="M0 362L129 362L129 369L257 369L257 428L386 428L386 421L514 421L514 464L643 464L643 377L771 377L771 432L900 432L900 418L900 601L900 601L771 601L771 601L643 601L643 601L514 601L514 601L386 601L386 601L257 601L257 601L129 601L129 601L0 601Z" fill="#7700c6"></path><path d="M0 501L129 501L129 496L257 496L257 522L386 522L386 519L514 519L514 506L643 506L643 503L771 503L771 500L900 500L900 498L900 601L900 601L771 601L771 601L643 601L643 601L514 601L514 601L386 601L386 601L257 601L257 601L129 601L129 601L0 601Z" fill="#560090"></path></svg>